<mxfile host="app.diagrams.net" modified="2023-09-14T00:11:07.407Z" agent="Mozilla/5.0 (Windows NT 10.0; Win64; x64) AppleWebKit/537.36 (KHTML, like Gecko) Chrome/116.0.0.0 Safari/537.36" etag="em7UnAmDBSXpJMzBOpWg" version="21.7.4" type="github">
  <diagram name="PÃ¡gina-1" id="xJL-yOYU4o_q4wXbg3Tc">
    <mxGraphModel dx="3970" dy="2170" grid="1" gridSize="10" guides="1" tooltips="1" connect="1" arrows="1" fold="1" page="1" pageScale="1" pageWidth="827" pageHeight="1169" math="0" shadow="0">
      <root>
        <mxCell id="0" />
        <mxCell id="1" parent="0" />
        <mxCell id="OmWuvQowkOaVl8Fed1vT-2" value="&lt;div style=&quot;font-size: 45px;&quot;&gt;&lt;b&gt;&lt;font color=&quot;#ffc012&quot;&gt;PoolManager Contract&lt;/font&gt;&lt;/b&gt;&lt;br&gt;&lt;/div&gt;" style="text;html=1;strokeColor=none;fillColor=none;align=center;verticalAlign=middle;whiteSpace=wrap;rounded=0;" vertex="1" parent="1">
          <mxGeometry x="921" y="130" width="640" height="70" as="geometry" />
        </mxCell>
        <mxCell id="OmWuvQowkOaVl8Fed1vT-5" value="" style="endArrow=none;html=1;rounded=0;" edge="1" parent="1">
          <mxGeometry relative="1" as="geometry">
            <mxPoint x="10" y="80" as="sourcePoint" />
            <mxPoint x="2470" y="80" as="targetPoint" />
          </mxGeometry>
        </mxCell>
        <mxCell id="OmWuvQowkOaVl8Fed1vT-6" value="" style="resizable=0;html=1;whiteSpace=wrap;align=right;verticalAlign=bottom;" connectable="0" vertex="1" parent="OmWuvQowkOaVl8Fed1vT-5">
          <mxGeometry x="1" relative="1" as="geometry" />
        </mxCell>
        <mxCell id="OmWuvQowkOaVl8Fed1vT-7" value="" style="endArrow=none;html=1;rounded=0;" edge="1" parent="1">
          <mxGeometry relative="1" as="geometry">
            <mxPoint x="10" y="1640" as="sourcePoint" />
            <mxPoint x="2450" y="1640" as="targetPoint" />
          </mxGeometry>
        </mxCell>
        <mxCell id="OmWuvQowkOaVl8Fed1vT-8" value="1" style="resizable=0;html=1;whiteSpace=wrap;align=right;verticalAlign=bottom;" connectable="0" vertex="1" parent="OmWuvQowkOaVl8Fed1vT-7">
          <mxGeometry x="1" relative="1" as="geometry" />
        </mxCell>
        <mxCell id="OmWuvQowkOaVl8Fed1vT-489" style="edgeStyle=orthogonalEdgeStyle;shape=connector;rounded=0;orthogonalLoop=1;jettySize=auto;html=1;exitX=1;exitY=0.5;exitDx=0;exitDy=0;labelBackgroundColor=default;strokeColor=default;strokeWidth=2;fontFamily=Helvetica;fontSize=12;fontColor=default;endArrow=classic;" edge="1" parent="1" source="OmWuvQowkOaVl8Fed1vT-17">
          <mxGeometry relative="1" as="geometry">
            <mxPoint x="650" y="315" as="targetPoint" />
          </mxGeometry>
        </mxCell>
        <mxCell id="OmWuvQowkOaVl8Fed1vT-17" value="&lt;font style=&quot;font-size: 30px;&quot;&gt;&lt;b&gt;Data Structures&lt;/b&gt;&lt;/font&gt;" style="text;html=1;strokeColor=#FFC012;fillColor=#FFC012;align=center;verticalAlign=middle;whiteSpace=wrap;rounded=1;gradientColor=#FFE599;strokeWidth=2;perimeterSpacing=2;" vertex="1" parent="1">
          <mxGeometry x="120" y="280" width="310" height="70" as="geometry" />
        </mxCell>
        <mxCell id="OmWuvQowkOaVl8Fed1vT-18" value="&lt;img alt=&quot;Support - Free computer icons&quot; src=&quot;https://encrypted-tbn0.gstatic.com/images?q=tbn:ANd9GcS4XGp03Iu4robymNyETolsGYEMNJblqOQlH9g1lNMhDgqRg-V96MaMMnqrylzVJul2swc&amp;amp;usqp=CAU&quot;&gt;" style="text;html=1;strokeColor=none;fillColor=none;align=center;verticalAlign=middle;whiteSpace=wrap;rounded=0;fontSize=20;fontFamily=Helvetica;fontColor=#000000;" vertex="1" parent="1">
          <mxGeometry x="427" y="350" width="232" height="230" as="geometry" />
        </mxCell>
        <mxCell id="OmWuvQowkOaVl8Fed1vT-202" value="" style="edgeStyle=orthogonalEdgeStyle;shape=connector;rounded=0;orthogonalLoop=1;jettySize=auto;html=1;labelBackgroundColor=default;strokeColor=default;strokeWidth=2;fontFamily=Helvetica;fontSize=12;fontColor=default;endArrow=classic;" edge="1" parent="1" target="OmWuvQowkOaVl8Fed1vT-201">
          <mxGeometry relative="1" as="geometry">
            <mxPoint x="990" y="315" as="sourcePoint" />
          </mxGeometry>
        </mxCell>
        <mxCell id="OmWuvQowkOaVl8Fed1vT-29" value="&lt;img alt=&quot;Centrifuge | The institutional ecosystem for onchain credit&quot; src=&quot;data:image/png;base64,iVBORw0KGgoAAAANSUhEUgAAATYAAACjCAMAAAA3vsLfAAAAgVBMVEX///8AAADw8PDg4OD8/Pzt7e24uLhZWVna2toWFhaZmZnFxcV6enrm5uYSEhLq6ur19fWAgICpqalHR0fS0tILCwulpaW/v79NTU0eHh4xMTFBQUFmZmaysrJUVFReXl6RkZEcHBySkpJkZGScnJyIiIgpKSkzMzNzc3M8PDzMzMyoonYnAAAHTUlEQVR4nO2b2XqiQBCF2URFWlFxB7e4EN//Aaerqhs3knHGbyLJnP8iEtbmUFsX6jgAAAAAAAAAAAAAAAAAAAAAAAAAAAAAAAAAAAAAAAAAAAAAAAAAAAA44ynl+0r1klcP5NsQqEHRPLjMaJHtT96rR/QNUNuhe0M3C4NXD6vepNmtZsJsC2/9EH9lZdoM+9Eg3+2z+ciuGsPiqlkbgbLQP68M0mguqw/p64ZWX5Soc8jv3bHVF+HWXz6o2jORGDap3prEvHkKR71mzLJEV+uuzE4taId570tHVXd27J8t+286WB2kbOuHpVAc+g7Q7UxOiiyNdant7Kr4mFrHZT8+Nl42yrpx4vwpcavRv6/a5qHsl1I10vrkRP8VjbZWYyXL+cZINSziuFiZOZa7FN9M3Xf/kxP9X1CRu+ClpJBitzg1xGM9NV7yqpF4aorQZuHAxhHLY4k20XX4SmXuMHjJ4GqLR47ItpRMSZ7i3qAmM+h2y1Yr8sZLzQ/F8aalRQKmQZbEBrZ3rdkRSRrmE1VWvG/u4flkEPiTfPIzWilU6O5pISXVTKXh5G+mYdQ39UYQ/6Wt5avCtgBCnvV2nhtvPQiG1tjonraysjO/KNqKp5q7oWvP70Ryvh9R97Wo0KUFyqdTWbe9qXaf8U5uAeT2SoR6esw1oG/dpl0aQmznBkPbonys0dbJiuzOAwel7nRaHR+9H9FE0SnyQDdyslZneiEZS5UM2o/7FSk0vlsbuQdJM8ef4qAa306rYmtUPqt2sjsEhbt4MLhVy2ahjH38Ke/AUht5yCnZfbJb86ro9lYz+LQkVl09z/0RDuqIR5KRKVuG+B/PB7zOYD3umDok8X1f65nm65w1DnxFmWStaDVt9Khrt/YcvaiTgO93dKBc8PqGHEoH6b1tvmmF0W6i96StVt0030ZhHR1b++aIBh5aq6Mybl61Z7LnMOe293xToTtyc4/nFe4b6eeOKIGM9N/Q6eiNUUBTWT/RizPHk630d6ej3cg8mIae1214yZczuX3eKkqF77JuWb+mi761OQWcsfVMuteoYkfftpC0q5GpkM6RfRG9MMWyQLLpEpAbAFo21+06jfPWiOs3I9uGNmo65ebV2owkKM7HnCoG9FL0Q34n66Fboc/kvXqUSZf02o/3R5NxSTat5HRlZvl3sh3YuFi2tra2kt2lbDORTcnjyN70/7YQosqoXewiVr9u7aqp6bTtjWzkNlVlAiWKNe3Afpma6n/TCRw1ZLcOVI/k2PaUnseK8RStngo8ls1R6sSxTSmvQjbqV20m+vQNnhfTAOgUU/bOMftuvVg+JptybVXHOSMzsnFxy9U/LZwzKcsW86KRTR+nZRvyqjvZ/AtH3BvZ9PNsm5hGz6Vm839tO0caUmSGlizcqsk2PfGJE2jEjUU2qSeCjfGic93GskmNdi0bH3AnGx1YmCslIpsa0cMJ+Irj+kU37XwHKilsIcLeuL/bjcLztCnMWOGwvNWAlKaJ5rVs5t3EI7LF7kXNU7BsdIb5Si74zhGxVvSNT07syGlGv7lziaV7jc+ymYgzrZRNfPQh2ZqXFr7lEU1uLrj9VwL8HblxAM/eaM+tMrfmzV20LmQLnpBtw7KRhdtGHwe3e9nuHeCltOyt6gJjxDfFr0nD8x4BlbfcJ0m8EudZ2cTpKNN0xcDKXHkonbQIzhesWUpQbdNlW7umId64dgq1oDvK3dsioEK2/EHZduWhucjGGcSUZhMxZk+Pa14zrS7R7rehnEBmJ11KKbq6A61EcjJdxuTCBJf8WSHbqRTrc9n4BSPl2WQuslEfwX3nzHsyMcChpnxTTjFY/nMV/pjIWtnCLkhn8ZKZafhmJ7+Vz0WjCtloojAapJPeb2TjZ7DopPJqgWSTSLYP85UNnVLLzXLf72S1y6OODI+tjFO+uMVNPJ6SHVzmUqpaK2QLzBuI029kK9vH7nxo5qQX3zuZi2xik5a6Ta7YS0c8KhLGFJ3q4ovPbVNRne9sSruHpTL8EodfEJgJeUcCuhzGs1FaoOezMB2hhezY5ff9vGZnzj3qkHfy9GDSLq/4wXcVX0ne3Uk9z25hU0Frz92NTXZuUvp9qjtnmYS4tIgLI+haL0oXrlXMu4dlS3+WG5MijqWyieNibRtp0VGfO1ZOVMTGKtW2eTw2o4ZDF5EBJeMmdZum6zr2hINyUBzTyqZR0Oj1etcDThq9xm9uQRcpD3Vw9anuzpQk+tDAWifj6SvWviPMfhi/Iu2fpaGMfnzBCJ6BQ9riBdPmvnXfoOlWt0lrjeS4rPXFjqGz5mLQ8xIv5YRdx1j2OWOTLLctL/kyb/VN6fEu3xn++KVhfUnLH6rNj1/1qxfv4rXBt/3NSF6+bPm67walRddcc/h9v5A0WX21bDoXnMLdehDW793enxB0xsWiW7NONAAAAAAAAAAAAAAAAAAAAAAAAAAAAAAAAAAAAAAAAAAAAAAAAAAAAAAAAAAAQH35BZZJW0DeMvsvAAAAAElFTkSuQmCC&quot;&gt;" style="text;html=1;strokeColor=none;fillColor=none;align=center;verticalAlign=middle;whiteSpace=wrap;rounded=0;fontSize=20;fontFamily=Helvetica;fontColor=#000000;" vertex="1" parent="1">
          <mxGeometry x="118" y="1460" width="309" height="150" as="geometry" />
        </mxCell>
        <mxCell id="OmWuvQowkOaVl8Fed1vT-37" value="&lt;font color=&quot;#ffc012&quot; style=&quot;font-size: 20px;&quot;&gt;Made by Catellatech C4 Wardens&lt;/font&gt;" style="text;html=1;strokeColor=none;fillColor=none;align=center;verticalAlign=middle;whiteSpace=wrap;rounded=0;" vertex="1" parent="1">
          <mxGeometry x="112.5" y="1560" width="320" height="30" as="geometry" />
        </mxCell>
        <mxCell id="OmWuvQowkOaVl8Fed1vT-42" value="" style="shape=waypoint;sketch=0;fillStyle=solid;size=6;pointerEvents=1;points=[];fillColor=none;resizable=0;rotatable=0;perimeter=centerPerimeter;snapToPoint=1;rounded=0;fontFamily=Helvetica;fontSize=12;fontColor=default;html=1;strokeWidth=5;strokeColor=#FFC012;" vertex="1" parent="1">
          <mxGeometry x="1380" y="240" width="20" height="20" as="geometry" />
        </mxCell>
        <mxCell id="OmWuvQowkOaVl8Fed1vT-214" style="edgeStyle=orthogonalEdgeStyle;shape=connector;rounded=0;orthogonalLoop=1;jettySize=auto;html=1;exitX=0.5;exitY=0;exitDx=0;exitDy=0;entryX=0.5;entryY=0;entryDx=0;entryDy=0;labelBackgroundColor=default;strokeColor=default;strokeWidth=2;fontFamily=Helvetica;fontSize=12;fontColor=default;endArrow=classic;" edge="1" parent="1" source="OmWuvQowkOaVl8Fed1vT-43" target="OmWuvQowkOaVl8Fed1vT-203">
          <mxGeometry relative="1" as="geometry" />
        </mxCell>
        <mxCell id="OmWuvQowkOaVl8Fed1vT-215" style="edgeStyle=orthogonalEdgeStyle;shape=connector;rounded=0;orthogonalLoop=1;jettySize=auto;html=1;exitX=0.5;exitY=1;exitDx=0;exitDy=0;entryX=0.5;entryY=1;entryDx=0;entryDy=0;labelBackgroundColor=default;strokeColor=default;strokeWidth=2;fontFamily=Helvetica;fontSize=12;fontColor=default;endArrow=classic;" edge="1" parent="1" source="OmWuvQowkOaVl8Fed1vT-43" target="OmWuvQowkOaVl8Fed1vT-207">
          <mxGeometry relative="1" as="geometry" />
        </mxCell>
        <mxCell id="OmWuvQowkOaVl8Fed1vT-43" value="&lt;font style=&quot;font-size: 20px;&quot;&gt;Such as&amp;nbsp;&lt;/font&gt;" style="text;html=1;strokeColor=none;fillColor=none;align=center;verticalAlign=middle;whiteSpace=wrap;rounded=0;" vertex="1" parent="1">
          <mxGeometry x="1221" y="250" width="120" height="40" as="geometry" />
        </mxCell>
        <mxCell id="OmWuvQowkOaVl8Fed1vT-59" value="" style="html=1;shadow=0;dashed=0;align=center;verticalAlign=middle;shape=mxgraph.arrows2.arrow;dy=0.6;dx=40;direction=south;notch=0;rounded=0;fontFamily=Helvetica;fontSize=12;fontColor=default;fillColor=#FFC012;gradientColor=none;strokeColor=default;strokeWidth=2;" vertex="1" parent="1">
          <mxGeometry x="237.5" y="395" width="70" height="130" as="geometry" />
        </mxCell>
        <mxCell id="OmWuvQowkOaVl8Fed1vT-201" value="" style="shape=singleArrow;whiteSpace=wrap;html=1;arrowWidth=0.4;arrowSize=0.4;rounded=0;shadow=0;dashed=0;strokeColor=default;strokeWidth=2;fontFamily=Helvetica;fontSize=12;fontColor=default;fillColor=#FFC012;gradientColor=none;" vertex="1" parent="1">
          <mxGeometry x="1241" y="285" width="80" height="60" as="geometry" />
        </mxCell>
        <mxCell id="OmWuvQowkOaVl8Fed1vT-491" style="edgeStyle=orthogonalEdgeStyle;shape=connector;rounded=0;orthogonalLoop=1;jettySize=auto;html=1;exitX=1;exitY=0.5;exitDx=0;exitDy=0;labelBackgroundColor=default;strokeColor=default;strokeWidth=2;fontFamily=Helvetica;fontSize=12;fontColor=default;endArrow=classic;" edge="1" parent="1" source="OmWuvQowkOaVl8Fed1vT-203">
          <mxGeometry relative="1" as="geometry">
            <mxPoint x="1640" y="250.33333333333337" as="targetPoint" />
          </mxGeometry>
        </mxCell>
        <mxCell id="OmWuvQowkOaVl8Fed1vT-203" value="&lt;font style=&quot;font-size: 25px;&quot;&gt;Pool&lt;/font&gt;" style="text;html=1;strokeColor=none;fillColor=none;align=center;verticalAlign=middle;whiteSpace=wrap;rounded=0;" vertex="1" parent="1">
          <mxGeometry x="1410" y="230" width="90" height="40" as="geometry" />
        </mxCell>
        <mxCell id="OmWuvQowkOaVl8Fed1vT-206" value="" style="shape=waypoint;sketch=0;fillStyle=solid;size=6;pointerEvents=1;points=[];fillColor=none;resizable=0;rotatable=0;perimeter=centerPerimeter;snapToPoint=1;rounded=0;fontFamily=Helvetica;fontSize=12;fontColor=default;html=1;strokeWidth=5;strokeColor=#FFC012;" vertex="1" parent="1">
          <mxGeometry x="1380" y="375" width="20" height="20" as="geometry" />
        </mxCell>
        <mxCell id="OmWuvQowkOaVl8Fed1vT-503" style="edgeStyle=orthogonalEdgeStyle;shape=connector;rounded=0;orthogonalLoop=1;jettySize=auto;html=1;exitX=1;exitY=0.5;exitDx=0;exitDy=0;labelBackgroundColor=default;strokeColor=default;strokeWidth=2;fontFamily=Helvetica;fontSize=12;fontColor=default;endArrow=classic;" edge="1" parent="1" source="OmWuvQowkOaVl8Fed1vT-207">
          <mxGeometry relative="1" as="geometry">
            <mxPoint x="1640" y="385.3333333333335" as="targetPoint" />
          </mxGeometry>
        </mxCell>
        <mxCell id="OmWuvQowkOaVl8Fed1vT-207" value="&lt;font style=&quot;font-size: 25px;&quot;&gt;Tranche&lt;/font&gt;" style="text;html=1;strokeColor=none;fillColor=none;align=center;verticalAlign=middle;whiteSpace=wrap;rounded=0;" vertex="1" parent="1">
          <mxGeometry x="1410" y="365" width="110" height="40" as="geometry" />
        </mxCell>
        <mxCell id="OmWuvQowkOaVl8Fed1vT-225" value="&lt;img alt=&quot;Data Structure Icon. Simple Element From Data Organization Collection.  Filled Data Structure Icon For Templates, Infographics And More. Royalty  Free SVG, Cliparts, Vectors, and Stock Illustration. Image 140045437.&quot; src=&quot;data:image/jpeg;base64,/9j/4AAQSkZJRgABAQAAAQABAAD/2wCEAAoHCBUWFRgWFhYZGRgYGBgYGRwaGBgaGB0YGBgZGhwaGBgcJC4lISErHxoaJjgmKy8xNTU1GiQ7QDs0Py40NTEBDAwMEA8QHhISHjQsJCs9NDE0NDY0NzQ0ND09ND00MTQ0NDQ0OjQ0NDQ0PzQ0NDY0NDQ0NDQ0NDQ0NDE0NDQ0NP/AABEIAOEA4QMBIgACEQEDEQH/xAAcAAEAAgIDAQAAAAAAAAAAAAAAAgYBBwMEBQj/xABDEAACAgECBAMFAwgHCAMAAAABAgADEQQSBQYhMRNBUQcUImGRMnGBF0JSYnKSobEVIzOiwcLTFlNVk7LS8PFjc4L/xAAXAQEBAQEAAAAAAAAAAAAAAAAAAQID/8QAHREBAQEAAgMBAQAAAAAAAAAAAAERAhIhQVFhIv/aAAwDAQACEQMRAD8A3NERASKnMizSSwJREQEREBESJMCUSGJIGBmIiAiIgIiICRVsjMizSS9oEoiICIiAiJEmBKJASQMDMREBONmkyJFVgFWTiICIiAiIgJAScwRAjJAQBMwEREBERATjZpJhkTCrAyBJREBERAREQEgsnMEQIyQEATMBERAREQEREBERAREQEREBERAREQEREBERAREQEREBERAREQEREBERAREQEREBERAREQEREBERAREQEREBERAREQEREBERAREQEREBERAREixgSiQx98kDAzERAqfOfOVegCrtNlrglUDbQFBxudsHAzkDoScH0JHh8te05LrlqvqFW9gqOr7l3scBWBAIycDPXqeuO8r3tg4bYuqTUEE1vWqBvJXUtlCfLIII9fi9JTODcOs1F6U1Al3YdR+YuRuc+gUdc/4kTpJMc7br6bieDwfmjT6i+6hGxZS7KVPTcFOGZPUBsqfTHoQT705uhK9zFzbpdGP61yXIytaDdYR1wcZwoOD1YgT3mafPHO+jur11/jBtzuzqx7NWT8JU9iAuF+WMeUvGbWeVyLXxD2tXEkUadEHkbGZj+KrtA+pnj2+0riLdrEX9mpf82ZTonXrHPtVvr9pPER3tRv2qkx/dAnq6D2s6hceNRU48yhetsfjuH8pruI6xO1b/AOW+edJrCEVilp7V2YDHHfawJVuxOAc48paZ8wcN0dt1qV0KxtZgU25BVgQQ+R9kKcHd5YzPptM4AJycDJ9Tjric+Ux0421yxIATw+ZeaNPolVrm6swCqOrEZAZsfoqDkn8O5AmW3hc4e0KvSWGiqvxbVxvy21EyMhcgEs2CDjoBnvnpOTkzn6vWv4Lp4VuCVAbcrgdSFOAQwHXaR2BOTg41fz5w96dddvB22u9tbHs6ud3wn9XO3Hlj5idv2acOst11ToDspJd28lGxlVc+rE4x6ZPlN5Mc9vZv2IiYdCImICYBzIk5kwIGYiICRElMEQIyQEATMBERA4bqlZSrKGUjBVgCCPQg9DODQ8MopBFNNdQPUitFQE/MKBNe89c9avSas01CrYERvjRmbLZz1DDp09JXH9qmvAPw6f8A5dn/AHzUlZvKRd+d+T2tYazRnw9XXhvhIXxNo6dT0D46AnoR8LdMY62m5k4uQA/D+oxk9QG9SAGODnribAZh2yPrMB19R9RIZ8UzhXMHEn1CJZoPDqZsNZk/CMHrjPr/ADlQfnlTZbptdp11NK3WqrYXxECuwXvgEgdAwKn5mbk3j1H1E1LzByXXrHt1HD7UL73F1LHG20MQ2D+aSQThuhzkHBlmJyl9Ol/QvA9R8VWsfTH9Gw4UfjaMn98ya+zVH618RoceXwD/AC2GU/iHANXQcW6e1ceewsn765X+M8pivnj+E6ZfVY2e42KfZkq/b4hQo9dg/wAXEiOXeDUfFfxA3Ed1qKkE+hFYZh+8JrsFf1f4T0tBwbU3ECqix8+ao238XxtH4mTL7ps9RbddzzRp63q4ZphTkEG5wDYcDoQCSSfQuT90vPGOO8QqdU0+i8evw0bxNxyWI+Id/wDzMpPC+QRSvvPErEppT4jXuDM2Ou1ivTr22ruJ7DE3IlikAggZAI7DoR06TFxvjvtSRzLxTaWPDuvkoJJ/E5wJwcq8qXW3nX8RG64n+rqONqBT8JK9QMfmr5faOWPTYHiL+kPqI3j1H1Ei59cOs0VVq7La0sX9F1V1+jAiZ0mlStQlaKijsqKqqPuVRiaj4x7SdbVqL6lFG2u61FzW5O1HZRk7+pwBOxyz7RNbfq6KXFOyx9rbUcNjaT0Jc+npLlTtNbdiImW2JAnMkwgCAAkoiAiIgIiICIiAiIgaH9rLgcRbJA/qqvP9qUtnXB+IYx6j+E+p3qU9SoJ+YBmPd0/RX6CbnLGLw2qhzB7OdLq721FllwdwoIQ1bfhUKMbkJ7D1nnfkf0P+91P71H+lPf5t5uq0QUFTZc5GypThiCcbicHAz0HQknoB3xX/AMpN/wDwvUfWz/Skmrc3y7vBvZlpNNfXell5as7gGNW0nBHXbWD5+RmrOYKdRpNdd1epzZY6OjMhZHcsrKw7qQRkeoIPabS4Nz1dffXU2gurDttLsX2r0Jyc1geWO47ys3c7UWPbp+I6cXIl1qpYgG9VV2UZGQQQB9pSD8j3Nm75Z5Znh5PD/aTxBAAzV2//AGJ1x6ZQr1+ZzPT/ACqO329FU59d5H8CjTB5U4Tqeum4h4ZPZbCpx8gj7H+pMk3sptbqmrqf57GGfozS/wAp5Y/KkR9jQ1KfXxM/yQTo672n69wQvhVZ7bayXH3l2Yf3Z319lFw6vqaVH7Ln+ZEx/sXw2jrquJKxHUrX4aMflty7n8MR/J5Um6zU621UZ3vtc7UDMWxnvgdkXzOMAAZM3Lx72eabV2LbbZarCtKyENe3CA4Pxox8z5ymarnTR6NHThmnCsVIN1gOfvAYl3+QbAB8j2lx45znbprFrXRW3jw0cum/aSwOR8KMMjHr5yXfS8c9uh+R/Q/73U/vUf6U7HDPZbo6Lq7ksvLVurqGNO0lSCAcVg46eRE635Sb/wDheo+tn+lPX5W53r1djUvW2nvXtW5yWGMnaSAdwHUqRnHUZ64l1qY0xzO6++6rqOmp1GRn/wCV52uRLAeIaXBH9r6/qNPojwV/RH0EwtKjqFAP3CXt4Tp5c0REw2REQEREBERAREQEREBERA1X7UuaLq7V0tDtWNgexlO1zuLAKrDqoAGTjBOR16EGn8s846nTXIzWu9RYCxLHZxsJ+Jl3ElWA6jHfHWbB9ovJNmrZdRp9ptVdjIx27lBJUox6BhkjrgEEdRjrWeWvZxqXuVtUgqrRgzKWR2faQdoCFgAexJPbsPOdJZjnZy1euDcmrXq7tXc5usexmq3dfDQ9vvYD4QewAGJbomZzt1uTGJp7mfkb3h7NToHS1WsfxKtwDLaGO8IT0+1k7WxjyyCANwz514rfqdHrtRsd6X8WxvhONyNYzKxHZlIORkEfjNcU5frydfw+6k4uqevrj40ZR+BIwfwnXQAdRjPy/wAZfNF7UNYgxalVwx5qUc/MlTt/uzs/lE0r/wBrwyon13Vvn96sTe345ZPrXTkN9rqfn1z9fOcuj0j2HbUjufREZz9FBl/HtB0ada+F1A/fWv8AFazOPU+1PUsNtNNNX4NYfw+yAfvBjb8Mn11+C+z5wPH17Lp9OnxMrMN7KPzTg4QHt33eQAJyN2VEEAjsQCPLpjpPm3iXEtXrXVbLHudjtRemNzdAFRcKD88du5n0jp0IVQe4UA/gMTHL9dOOenLKlzhycmsKWo3g6itl22L0JUHODjrkdSp8j8pbpiZlxqzWjefebdQ+psoqteuqlzXhGKM7r8Ls7Lgn4gQB2wB0nb9m3Nl41Kaa2x7K7cqu9izI4UsCrsc7TjG35gjGDnvc8+z+9731GlUWCw7mr3KjBzjcVLEKVP2u+ck9/Ln5A5CvqvXU6oBCmfDrDBm3EFdzlSVAAJwAT1Pljr02dWM5a2nEROboREQEREBERAREQEirZkWaSUQJREQEREBESJMCU8jjnL+n1ahb6lfH2W6h1/ZcdR93Y+c9TH4SQMDV3EfZIpJNGpZf1bED/wB5Sv8AIzxrfZRrR9mzTsPm9in6bD/Obria7VnrGkq/ZTrj3fTj/wDdh/yT19D7IuubtT0/RrTB/fcn/pm1ojtTrHhcB5W0uk601/GRgux3WEem49h8hgT3IiZaCZgHIkCczkAgZiIgIiICIkM5+6BOJDEkDAzERATjJzJkTAEABJREBERAREQEiJKYIgYmQIAmYCIiAiIgYJnGxzJkZgCAAkoiAiIgIiICQWTmCIEZICAJmAiIgIiICIiAiIgIiICIiAiIgIiICIiAiIgIiICIiAiIgIiICIiAiIgIiICIiBiIlZ554hdTRWaH8N31FNW7arkLY2CQrAiEtxZolMTWazS6zT0X3jU1anxFDGpK3retd4+x0YHt2/l16n+1F/vu8sPcTqPcQNo/ttmfE3Yzjf8AB324+cuGr9E19xL+kE1un0y8QbGoF7bvdqPgFY3BQMde+M58pPmrjOspZKdPZvfTaf3rVMUUeIiELswAQhfFjYXBGBiMNX+YnX0WqW2tLEOUsVXU+qsAR/AzW2n5l1LMQ+sWjVC0j3S+pa9Oa9+0KtxXcSV6hg3U9MY6xJpbjaMSi80vrab6PD1zBNTqFpVPd6SK1ZSc7iMtjHn6zg5g4lqNNbpNPZxDww6Xtbe1VC5KlSgKspVe+3p3jDWwYmrdXzRrF0evdL/FSj3f3fVClU3mx1V1C42NtzjIHn8xi0828VupGiNbBfG1umqs6Kd1dm7cvxA4zgdRg9OhjDVqiUmrVazW36kU6j3anT2mhdtVdjvaoBdn3ggKCRgDGfURxRuIjRte9409unr1DWKldViXeGGKOC+SgYLnHlu6gdow1dYmttdxLXU8JbWnWF3sq0zoDTSorNr17sED4vhcjqPnLHzZxO2ltEK22i3WVVP0U7q3V8r1Bx2HUdekYas0TWep5isN+rV+JrpjVa6U1mql9yhRg4K72657GOI80asU8Oa633M6gXnUN4SttFYGxtrg43ZBx+v8ow1syJWuUdZ4osYa46sAqP7KuvYcEn7CjOcjv6SyyUl1mIiFIiICIiAiJEmBKJDbJAwE8Hm/g1mppRKmRXS6u1S4YqTWc4O3rPeiBTjwDW23LqNRdR4lCWjTpUlgrFtilfEsLkk46dB/76R9m9Xufhbn942Z3+Nd4fj4zv8AD3bcbvPbnHXvL9Eu1Mit3cEufVaLUO6k6eq1bcbviexFXKDHbIY9flOnVyUll2pv1RZ3usO3w7bqwKFAVEcIy7jgdc5HWXCCZNpkeFynwl9Lp/Adw6pZZ4ZGcipmLIrE/nDJ7dB0A7Sv6vlbW26c6Ky+mzT7ul1gsfVBA24Ag/CXHbfnt5S9HrJCXTPGPB47wRrm0hQqBp9Qlrbs5KojDC4H2skd8eccQ4K1mu0+oyuymu9GU53E2BQMDGMd85+XfPSwRGmKS3JbGvW6XxAul1G16V6lqbd29gB22bgpCg+o6dzn+gNbe+mGrs0/haaxLl8JbPEssrBCF9/RR5kDOev4XSI0yKlZwTWUX3WaKyjZqG3ul6vhbcYLoyd8+an07ztV8AddBbpWuNlttd6tY+cF7w+Tt64UFuw8hLJIHrBit6nlrxeGroXcBhRVXuUEqHqCEMAcEjcgOOnT0nTHA9dfbp21lmn8PTWC1RSLN1lqghWfd0UDOcDPn+Fwx9ZkRpkVOrlIFdcl5DLqr2sQrncgKKFOSOjqwJGM9h64nU1HLmuK6GzxqW1Gk8YFnFhRw4CKTjDbtgGfU+freIk2mR5PBl1gL+9NpyPh2eCti9eu7dvJ/Vxj5z14iFIiRJgYY/WSE4wMzlgIiICRkpgiBGSAgCZgIiICIiBiQJzJkTAEABJREBERAREQEgJOYIgRxJAQBMwEREBERAiTIDrJsMzIEABMxEBERAREQEREBERAREQEREBERAREQEREBERAREQEREBERAREQEREBERA/9k=&quot;&gt;" style="text;html=1;strokeColor=none;fillColor=none;align=center;verticalAlign=middle;whiteSpace=wrap;rounded=0;fontSize=20;fontFamily=Helvetica;fontColor=#000000;" vertex="1" parent="1">
          <mxGeometry x="740" y="175" width="172" height="175" as="geometry" />
        </mxCell>
        <mxCell id="OmWuvQowkOaVl8Fed1vT-241" style="edgeStyle=orthogonalEdgeStyle;shape=connector;rounded=0;orthogonalLoop=1;jettySize=auto;html=1;exitX=0.5;exitY=0;exitDx=0;exitDy=0;entryX=0.75;entryY=0;entryDx=0;entryDy=0;labelBackgroundColor=default;strokeColor=default;strokeWidth=2;fontFamily=Helvetica;fontSize=12;fontColor=default;endArrow=classic;" edge="1" parent="1" target="OmWuvQowkOaVl8Fed1vT-237">
          <mxGeometry relative="1" as="geometry">
            <mxPoint x="1910" y="570.0000000000002" as="sourcePoint" />
          </mxGeometry>
        </mxCell>
        <mxCell id="OmWuvQowkOaVl8Fed1vT-490" value="&lt;font style=&quot;font-size: 25px;&quot;&gt;The contract uses &lt;font color=&quot;#ffc012&quot;&gt;two main&lt;/font&gt;&lt;/font&gt;" style="text;html=1;strokeColor=none;fillColor=none;align=center;verticalAlign=middle;whiteSpace=wrap;rounded=0;" vertex="1" parent="1">
          <mxGeometry x="650" y="250" width="340" height="120" as="geometry" />
        </mxCell>
        <mxCell id="OmWuvQowkOaVl8Fed1vT-493" style="edgeStyle=orthogonalEdgeStyle;shape=connector;rounded=0;orthogonalLoop=1;jettySize=auto;html=1;exitX=1;exitY=0.75;exitDx=0;exitDy=0;labelBackgroundColor=default;strokeColor=default;strokeWidth=2;fontFamily=Helvetica;fontSize=12;fontColor=default;endArrow=classic;" edge="1" parent="1" source="OmWuvQowkOaVl8Fed1vT-492">
          <mxGeometry relative="1" as="geometry">
            <mxPoint x="2119.9999999999995" y="247" as="targetPoint" />
          </mxGeometry>
        </mxCell>
        <mxCell id="OmWuvQowkOaVl8Fed1vT-492" value="&lt;font style=&quot;font-size: 25px;&quot;&gt;Represents a specific &lt;font color=&quot;#ffc012&quot;&gt;liquidity pool&lt;/font&gt; and contains details&lt;/font&gt;" style="text;html=1;strokeColor=none;fillColor=none;align=center;verticalAlign=middle;whiteSpace=wrap;rounded=0;" vertex="1" parent="1">
          <mxGeometry x="1654" y="175" width="316" height="95" as="geometry" />
        </mxCell>
        <mxCell id="OmWuvQowkOaVl8Fed1vT-501" style="edgeStyle=orthogonalEdgeStyle;shape=connector;rounded=0;orthogonalLoop=1;jettySize=auto;html=1;exitX=0.5;exitY=0;exitDx=0;exitDy=0;entryX=0.5;entryY=0;entryDx=0;entryDy=0;labelBackgroundColor=default;strokeColor=default;strokeWidth=2;fontFamily=Helvetica;fontSize=12;fontColor=default;endArrow=classic;" edge="1" parent="1" source="OmWuvQowkOaVl8Fed1vT-494" target="OmWuvQowkOaVl8Fed1vT-496">
          <mxGeometry relative="1" as="geometry" />
        </mxCell>
        <mxCell id="OmWuvQowkOaVl8Fed1vT-502" style="edgeStyle=orthogonalEdgeStyle;shape=connector;rounded=0;orthogonalLoop=1;jettySize=auto;html=1;exitX=0.5;exitY=1;exitDx=0;exitDy=0;entryX=0.5;entryY=1;entryDx=0;entryDy=0;labelBackgroundColor=default;strokeColor=default;strokeWidth=2;fontFamily=Helvetica;fontSize=12;fontColor=default;endArrow=classic;" edge="1" parent="1" source="OmWuvQowkOaVl8Fed1vT-494" target="OmWuvQowkOaVl8Fed1vT-500">
          <mxGeometry relative="1" as="geometry" />
        </mxCell>
        <mxCell id="OmWuvQowkOaVl8Fed1vT-494" value="&lt;font style=&quot;font-size: 20px;&quot;&gt;Such as&amp;nbsp;&lt;/font&gt;" style="text;html=1;strokeColor=none;fillColor=none;align=center;verticalAlign=middle;whiteSpace=wrap;rounded=0;" vertex="1" parent="1">
          <mxGeometry x="1980" y="202.5" width="120" height="40" as="geometry" />
        </mxCell>
        <mxCell id="OmWuvQowkOaVl8Fed1vT-495" value="" style="shape=waypoint;sketch=0;fillStyle=solid;size=6;pointerEvents=1;points=[];fillColor=none;resizable=0;rotatable=0;perimeter=centerPerimeter;snapToPoint=1;rounded=0;fontFamily=Helvetica;fontSize=12;fontColor=default;html=1;strokeWidth=5;strokeColor=#FFC012;" vertex="1" parent="1">
          <mxGeometry x="2126" y="155" width="20" height="20" as="geometry" />
        </mxCell>
        <mxCell id="OmWuvQowkOaVl8Fed1vT-496" value="&lt;font style=&quot;font-size: 25px;&quot;&gt;ID&lt;/font&gt;" style="text;html=1;strokeColor=none;fillColor=none;align=center;verticalAlign=middle;whiteSpace=wrap;rounded=0;" vertex="1" parent="1">
          <mxGeometry x="2146" y="145" width="50" height="40" as="geometry" />
        </mxCell>
        <mxCell id="OmWuvQowkOaVl8Fed1vT-497" value="" style="shape=waypoint;sketch=0;fillStyle=solid;size=6;pointerEvents=1;points=[];fillColor=none;resizable=0;rotatable=0;perimeter=centerPerimeter;snapToPoint=1;rounded=0;fontFamily=Helvetica;fontSize=12;fontColor=default;html=1;strokeWidth=5;strokeColor=#FFC012;" vertex="1" parent="1">
          <mxGeometry x="2126" y="202.5" width="20" height="20" as="geometry" />
        </mxCell>
        <mxCell id="OmWuvQowkOaVl8Fed1vT-498" value="&lt;font style=&quot;font-size: 25px;&quot;&gt;Associated tranches&lt;/font&gt;" style="text;html=1;strokeColor=none;fillColor=none;align=center;verticalAlign=middle;whiteSpace=wrap;rounded=0;" vertex="1" parent="1">
          <mxGeometry x="2146" y="197.5" width="250" height="30" as="geometry" />
        </mxCell>
        <mxCell id="OmWuvQowkOaVl8Fed1vT-499" value="" style="shape=waypoint;sketch=0;fillStyle=solid;size=6;pointerEvents=1;points=[];fillColor=none;resizable=0;rotatable=0;perimeter=centerPerimeter;snapToPoint=1;rounded=0;fontFamily=Helvetica;fontSize=12;fontColor=default;html=1;strokeWidth=5;strokeColor=#FFC012;" vertex="1" parent="1">
          <mxGeometry x="2126" y="252.5" width="20" height="20" as="geometry" />
        </mxCell>
        <mxCell id="OmWuvQowkOaVl8Fed1vT-500" value="&lt;font style=&quot;font-size: 25px;&quot;&gt;Supported currencies&lt;/font&gt;" style="text;html=1;strokeColor=none;fillColor=none;align=center;verticalAlign=middle;whiteSpace=wrap;rounded=0;" vertex="1" parent="1">
          <mxGeometry x="2146" y="247.5" width="250" height="30" as="geometry" />
        </mxCell>
        <mxCell id="OmWuvQowkOaVl8Fed1vT-505" style="edgeStyle=orthogonalEdgeStyle;shape=connector;rounded=0;orthogonalLoop=1;jettySize=auto;html=1;exitX=1;exitY=0.5;exitDx=0;exitDy=0;labelBackgroundColor=default;strokeColor=default;strokeWidth=2;fontFamily=Helvetica;fontSize=12;fontColor=default;endArrow=classic;" edge="1" parent="1" source="OmWuvQowkOaVl8Fed1vT-504">
          <mxGeometry relative="1" as="geometry">
            <mxPoint x="2129.9999999999995" y="397" as="targetPoint" />
          </mxGeometry>
        </mxCell>
        <mxCell id="OmWuvQowkOaVl8Fed1vT-504" value="&lt;font style=&quot;font-size: 25px;&quot;&gt;Represents a &lt;font color=&quot;#ffc012&quot;&gt;specific investment category&lt;/font&gt; within a liquidity pool&lt;/font&gt;" style="text;html=1;strokeColor=none;fillColor=none;align=center;verticalAlign=middle;whiteSpace=wrap;rounded=0;" vertex="1" parent="1">
          <mxGeometry x="1654" y="350" width="316" height="95" as="geometry" />
        </mxCell>
        <mxCell id="OmWuvQowkOaVl8Fed1vT-513" style="edgeStyle=orthogonalEdgeStyle;shape=connector;rounded=0;orthogonalLoop=1;jettySize=auto;html=1;exitX=0.5;exitY=0;exitDx=0;exitDy=0;entryX=0.5;entryY=0;entryDx=0;entryDy=0;labelBackgroundColor=default;strokeColor=default;strokeWidth=2;fontFamily=Helvetica;fontSize=12;fontColor=default;endArrow=classic;" edge="1" parent="1" source="OmWuvQowkOaVl8Fed1vT-506" target="OmWuvQowkOaVl8Fed1vT-508">
          <mxGeometry relative="1" as="geometry" />
        </mxCell>
        <mxCell id="OmWuvQowkOaVl8Fed1vT-514" style="edgeStyle=orthogonalEdgeStyle;shape=connector;rounded=0;orthogonalLoop=1;jettySize=auto;html=1;exitX=0.5;exitY=1;exitDx=0;exitDy=0;entryX=0.25;entryY=1;entryDx=0;entryDy=0;labelBackgroundColor=default;strokeColor=default;strokeWidth=2;fontFamily=Helvetica;fontSize=12;fontColor=default;endArrow=classic;" edge="1" parent="1" source="OmWuvQowkOaVl8Fed1vT-506" target="OmWuvQowkOaVl8Fed1vT-512">
          <mxGeometry relative="1" as="geometry" />
        </mxCell>
        <mxCell id="OmWuvQowkOaVl8Fed1vT-506" value="&lt;font style=&quot;font-size: 20px;&quot;&gt;Stores information&lt;/font&gt;" style="text;html=1;strokeColor=none;fillColor=none;align=center;verticalAlign=middle;whiteSpace=wrap;rounded=0;" vertex="1" parent="1">
          <mxGeometry x="1990" y="340" width="120" height="50" as="geometry" />
        </mxCell>
        <mxCell id="OmWuvQowkOaVl8Fed1vT-507" value="" style="shape=waypoint;sketch=0;fillStyle=solid;size=6;pointerEvents=1;points=[];fillColor=none;resizable=0;rotatable=0;perimeter=centerPerimeter;snapToPoint=1;rounded=0;fontFamily=Helvetica;fontSize=12;fontColor=default;html=1;strokeWidth=5;strokeColor=#FFC012;" vertex="1" parent="1">
          <mxGeometry x="2146" y="345" width="20" height="20" as="geometry" />
        </mxCell>
        <mxCell id="OmWuvQowkOaVl8Fed1vT-508" value="&lt;font style=&quot;font-size: 25px;&quot;&gt;ID&lt;/font&gt;" style="text;html=1;strokeColor=none;fillColor=none;align=center;verticalAlign=middle;whiteSpace=wrap;rounded=0;" vertex="1" parent="1">
          <mxGeometry x="2166" y="335" width="50" height="40" as="geometry" />
        </mxCell>
        <mxCell id="OmWuvQowkOaVl8Fed1vT-509" value="" style="shape=waypoint;sketch=0;fillStyle=solid;size=6;pointerEvents=1;points=[];fillColor=none;resizable=0;rotatable=0;perimeter=centerPerimeter;snapToPoint=1;rounded=0;fontFamily=Helvetica;fontSize=12;fontColor=default;html=1;strokeWidth=5;strokeColor=#FFC012;" vertex="1" parent="1">
          <mxGeometry x="2146" y="395" width="20" height="20" as="geometry" />
        </mxCell>
        <mxCell id="OmWuvQowkOaVl8Fed1vT-510" value="&lt;font style=&quot;font-size: 25px;&quot;&gt;Associated token&lt;/font&gt;" style="text;html=1;strokeColor=none;fillColor=none;align=center;verticalAlign=middle;whiteSpace=wrap;rounded=0;" vertex="1" parent="1">
          <mxGeometry x="2169" y="390" width="204" height="30" as="geometry" />
        </mxCell>
        <mxCell id="OmWuvQowkOaVl8Fed1vT-511" value="" style="shape=waypoint;sketch=0;fillStyle=solid;size=6;pointerEvents=1;points=[];fillColor=none;resizable=0;rotatable=0;perimeter=centerPerimeter;snapToPoint=1;rounded=0;fontFamily=Helvetica;fontSize=12;fontColor=default;html=1;strokeWidth=5;strokeColor=#FFC012;" vertex="1" parent="1">
          <mxGeometry x="2146" y="445" width="20" height="20" as="geometry" />
        </mxCell>
        <mxCell id="OmWuvQowkOaVl8Fed1vT-512" value="&lt;font style=&quot;font-size: 25px;&quot;&gt;Creation details&lt;/font&gt;" style="text;html=1;strokeColor=none;fillColor=none;align=center;verticalAlign=middle;whiteSpace=wrap;rounded=0;" vertex="1" parent="1">
          <mxGeometry x="2169" y="440" width="181" height="30" as="geometry" />
        </mxCell>
        <mxCell id="OmWuvQowkOaVl8Fed1vT-516" style="edgeStyle=orthogonalEdgeStyle;shape=connector;rounded=0;orthogonalLoop=1;jettySize=auto;html=1;exitX=1;exitY=0.5;exitDx=0;exitDy=0;labelBackgroundColor=default;strokeColor=default;strokeWidth=2;fontFamily=Helvetica;fontSize=12;fontColor=default;endArrow=classic;" edge="1" parent="1" source="OmWuvQowkOaVl8Fed1vT-515">
          <mxGeometry relative="1" as="geometry">
            <mxPoint x="650" y="605.3333333333335" as="targetPoint" />
          </mxGeometry>
        </mxCell>
        <mxCell id="OmWuvQowkOaVl8Fed1vT-515" value="&lt;font size=&quot;1&quot; style=&quot;&quot;&gt;&lt;b style=&quot;font-size: 27px;&quot;&gt;Functions to Add Pools and Tranches&lt;/b&gt;&lt;/font&gt;" style="text;html=1;strokeColor=#FFC012;fillColor=#FFC012;align=center;verticalAlign=middle;whiteSpace=wrap;rounded=1;gradientColor=#FFE599;strokeWidth=2;perimeterSpacing=2;" vertex="1" parent="1">
          <mxGeometry x="120" y="570" width="310" height="70" as="geometry" />
        </mxCell>
        <mxCell id="OmWuvQowkOaVl8Fed1vT-518" style="edgeStyle=orthogonalEdgeStyle;shape=connector;rounded=0;orthogonalLoop=1;jettySize=auto;html=1;exitX=1;exitY=0.5;exitDx=0;exitDy=0;labelBackgroundColor=default;strokeColor=default;strokeWidth=2;fontFamily=Helvetica;fontSize=12;fontColor=default;endArrow=classic;" edge="1" parent="1" source="OmWuvQowkOaVl8Fed1vT-517">
          <mxGeometry relative="1" as="geometry">
            <mxPoint x="1440" y="605.3333333333335" as="targetPoint" />
          </mxGeometry>
        </mxCell>
        <mxCell id="OmWuvQowkOaVl8Fed1vT-517" value="&lt;font style=&quot;font-size: 25px;&quot;&gt;The contract &lt;font color=&quot;#ffc012&quot;&gt;allows&lt;/font&gt; the &lt;font color=&quot;#ffc012&quot;&gt;Gateway&lt;/font&gt; to &lt;font color=&quot;#ffc012&quot;&gt;add new liquidity pools&lt;/font&gt; and investment categories &lt;font color=&quot;#ffc012&quot;&gt;(tranches)&lt;/font&gt;&lt;/font&gt;" style="text;html=1;strokeColor=none;fillColor=none;align=center;verticalAlign=middle;whiteSpace=wrap;rounded=0;" vertex="1" parent="1">
          <mxGeometry x="650" y="563.75" width="599" height="82.5" as="geometry" />
        </mxCell>
        <mxCell id="OmWuvQowkOaVl8Fed1vT-520" style="edgeStyle=orthogonalEdgeStyle;shape=connector;rounded=0;orthogonalLoop=1;jettySize=auto;html=1;exitX=1;exitY=0.5;exitDx=0;exitDy=0;labelBackgroundColor=default;strokeColor=default;strokeWidth=2;fontFamily=Helvetica;fontSize=12;fontColor=default;endArrow=classic;" edge="1" parent="1" source="OmWuvQowkOaVl8Fed1vT-519">
          <mxGeometry relative="1" as="geometry">
            <mxPoint x="1810" y="605.3333333333335" as="targetPoint" />
          </mxGeometry>
        </mxCell>
        <mxCell id="OmWuvQowkOaVl8Fed1vT-525" style="edgeStyle=orthogonalEdgeStyle;shape=connector;rounded=0;orthogonalLoop=1;jettySize=auto;html=1;exitX=0.5;exitY=0;exitDx=0;exitDy=0;entryX=0.542;entryY=0.012;entryDx=0;entryDy=0;entryPerimeter=0;labelBackgroundColor=default;strokeColor=default;strokeWidth=2;fontFamily=Helvetica;fontSize=12;fontColor=default;endArrow=classic;" edge="1" parent="1" source="OmWuvQowkOaVl8Fed1vT-519" target="OmWuvQowkOaVl8Fed1vT-522">
          <mxGeometry relative="1" as="geometry" />
        </mxCell>
        <mxCell id="OmWuvQowkOaVl8Fed1vT-526" style="edgeStyle=orthogonalEdgeStyle;shape=connector;rounded=0;orthogonalLoop=1;jettySize=auto;html=1;exitX=0.5;exitY=1;exitDx=0;exitDy=0;entryX=0.75;entryY=1;entryDx=0;entryDy=0;labelBackgroundColor=default;strokeColor=default;strokeWidth=2;fontFamily=Helvetica;fontSize=12;fontColor=default;endArrow=classic;" edge="1" parent="1" source="OmWuvQowkOaVl8Fed1vT-519" target="OmWuvQowkOaVl8Fed1vT-524">
          <mxGeometry relative="1" as="geometry" />
        </mxCell>
        <mxCell id="OmWuvQowkOaVl8Fed1vT-519" value="&lt;font style=&quot;font-size: 25px;&quot;&gt;This is essential for&lt;/font&gt;" style="text;html=1;strokeColor=none;fillColor=none;align=center;verticalAlign=middle;whiteSpace=wrap;rounded=0;" vertex="1" parent="1">
          <mxGeometry x="1450" y="578.75" width="220" height="52.5" as="geometry" />
        </mxCell>
        <mxCell id="OmWuvQowkOaVl8Fed1vT-521" value="" style="shape=waypoint;sketch=0;fillStyle=solid;size=6;pointerEvents=1;points=[];fillColor=none;resizable=0;rotatable=0;perimeter=centerPerimeter;snapToPoint=1;rounded=0;fontFamily=Helvetica;fontSize=12;fontColor=default;html=1;strokeWidth=5;strokeColor=#FFC012;" vertex="1" parent="1">
          <mxGeometry x="1840" y="550" width="20" height="20" as="geometry" />
        </mxCell>
        <mxCell id="OmWuvQowkOaVl8Fed1vT-522" value="&lt;font style=&quot;font-size: 25px;&quot;&gt;Registering &lt;font color=&quot;#ffc012&quot;&gt;new pools&lt;/font&gt; in the &lt;font color=&quot;#ffc012&quot;&gt;financial system&lt;/font&gt;&lt;/font&gt;" style="text;html=1;strokeColor=none;fillColor=none;align=center;verticalAlign=middle;whiteSpace=wrap;rounded=0;" vertex="1" parent="1">
          <mxGeometry x="1863" y="538.75" width="510" height="40" as="geometry" />
        </mxCell>
        <mxCell id="OmWuvQowkOaVl8Fed1vT-523" value="" style="shape=waypoint;sketch=0;fillStyle=solid;size=6;pointerEvents=1;points=[];fillColor=none;resizable=0;rotatable=0;perimeter=centerPerimeter;snapToPoint=1;rounded=0;fontFamily=Helvetica;fontSize=12;fontColor=default;html=1;strokeWidth=5;strokeColor=#FFC012;" vertex="1" parent="1">
          <mxGeometry x="1840" y="620" width="20" height="20" as="geometry" />
        </mxCell>
        <mxCell id="OmWuvQowkOaVl8Fed1vT-524" value="&lt;font style=&quot;font-size: 25px;&quot;&gt;Enabling &lt;font color=&quot;#ffc012&quot;&gt;investment&lt;/font&gt; in them.&lt;/font&gt;" style="text;html=1;strokeColor=none;fillColor=none;align=center;verticalAlign=middle;whiteSpace=wrap;rounded=0;" vertex="1" parent="1">
          <mxGeometry x="1863" y="610" width="337" height="40" as="geometry" />
        </mxCell>
        <mxCell id="OmWuvQowkOaVl8Fed1vT-527" value="" style="html=1;shadow=0;dashed=0;align=center;verticalAlign=middle;shape=mxgraph.arrows2.arrow;dy=0.6;dx=40;direction=south;notch=0;rounded=0;fontFamily=Helvetica;fontSize=12;fontColor=default;fillColor=#FFC012;gradientColor=none;strokeColor=default;strokeWidth=2;" vertex="1" parent="1">
          <mxGeometry x="240" y="680" width="70" height="130" as="geometry" />
        </mxCell>
        <mxCell id="OmWuvQowkOaVl8Fed1vT-529" style="edgeStyle=orthogonalEdgeStyle;shape=connector;rounded=0;orthogonalLoop=1;jettySize=auto;html=1;exitX=1;exitY=0.5;exitDx=0;exitDy=0;labelBackgroundColor=default;strokeColor=default;strokeWidth=2;fontFamily=Helvetica;fontSize=12;fontColor=default;endArrow=classic;" edge="1" parent="1" source="OmWuvQowkOaVl8Fed1vT-528">
          <mxGeometry relative="1" as="geometry">
            <mxPoint x="640" y="875.3333333333335" as="targetPoint" />
          </mxGeometry>
        </mxCell>
        <mxCell id="OmWuvQowkOaVl8Fed1vT-528" value="&lt;font size=&quot;1&quot; style=&quot;&quot;&gt;&lt;b style=&quot;font-size: 27px;&quot;&gt;Functions for Transfers and Token Handling&lt;/b&gt;&lt;/font&gt;" style="text;html=1;strokeColor=#FFC012;fillColor=#FFC012;align=center;verticalAlign=middle;whiteSpace=wrap;rounded=1;gradientColor=#FFE599;strokeWidth=2;perimeterSpacing=2;" vertex="1" parent="1">
          <mxGeometry x="112.5" y="840" width="310" height="70" as="geometry" />
        </mxCell>
        <mxCell id="OmWuvQowkOaVl8Fed1vT-531" style="edgeStyle=orthogonalEdgeStyle;shape=connector;rounded=0;orthogonalLoop=1;jettySize=auto;html=1;exitX=1;exitY=0.5;exitDx=0;exitDy=0;labelBackgroundColor=default;strokeColor=default;strokeWidth=2;fontFamily=Helvetica;fontSize=12;fontColor=default;endArrow=classic;" edge="1" parent="1" source="OmWuvQowkOaVl8Fed1vT-530">
          <mxGeometry relative="1" as="geometry">
            <mxPoint x="1370" y="882" as="targetPoint" />
          </mxGeometry>
        </mxCell>
        <mxCell id="OmWuvQowkOaVl8Fed1vT-530" value="&lt;font style=&quot;font-size: 25px;&quot;&gt;The contract includes functions to perform &lt;font color=&quot;#ffc012&quot;&gt;asset&lt;/font&gt; and &lt;font color=&quot;#ffc012&quot;&gt;tranche token&lt;/font&gt; transfers&lt;/font&gt;" style="text;html=1;strokeColor=none;fillColor=none;align=center;verticalAlign=middle;whiteSpace=wrap;rounded=0;" vertex="1" parent="1">
          <mxGeometry x="650" y="840" width="560" height="82.5" as="geometry" />
        </mxCell>
        <mxCell id="OmWuvQowkOaVl8Fed1vT-532" value="&lt;font style=&quot;font-size: 20px;&quot;&gt;These functions are used by&lt;/font&gt;" style="text;html=1;strokeColor=none;fillColor=none;align=center;verticalAlign=middle;whiteSpace=wrap;rounded=0;" vertex="1" parent="1">
          <mxGeometry x="1206.5" y="830" width="149" height="40" as="geometry" />
        </mxCell>
        <mxCell id="OmWuvQowkOaVl8Fed1vT-534" style="edgeStyle=orthogonalEdgeStyle;shape=connector;rounded=0;orthogonalLoop=1;jettySize=auto;html=1;exitX=1;exitY=0.5;exitDx=0;exitDy=0;labelBackgroundColor=default;strokeColor=default;strokeWidth=2;fontFamily=Helvetica;fontSize=12;fontColor=default;endArrow=classic;" edge="1" parent="1" source="OmWuvQowkOaVl8Fed1vT-533">
          <mxGeometry relative="1" as="geometry">
            <mxPoint x="1760" y="883.6666666666667" as="targetPoint" />
          </mxGeometry>
        </mxCell>
        <mxCell id="OmWuvQowkOaVl8Fed1vT-533" value="&lt;font style=&quot;font-size: 25px;&quot;&gt;Gateway&lt;/font&gt;" style="text;html=1;strokeColor=#FFC012;fillColor=#FFC012;align=center;verticalAlign=middle;whiteSpace=wrap;rounded=1;gradientColor=#FFE599;strokeWidth=2;" vertex="1" parent="1">
          <mxGeometry x="1390" y="857.5" width="190" height="52.5" as="geometry" />
        </mxCell>
        <mxCell id="OmWuvQowkOaVl8Fed1vT-535" value="&lt;font style=&quot;font-size: 25px;&quot;&gt;&lt;font color=&quot;#ffc012&quot;&gt;Incoming&lt;/font&gt; and &lt;font color=&quot;#ffc012&quot;&gt;outgoing&lt;/font&gt; transactions in the financial system&lt;/font&gt;" style="text;html=1;strokeColor=none;fillColor=none;align=left;verticalAlign=middle;whiteSpace=wrap;rounded=0;" vertex="1" parent="1">
          <mxGeometry x="1780" y="863.75" width="590" height="40" as="geometry" />
        </mxCell>
        <mxCell id="OmWuvQowkOaVl8Fed1vT-536" value="&lt;font style=&quot;font-size: 20px;&quot;&gt;To manage&lt;/font&gt;" style="text;html=1;strokeColor=none;fillColor=none;align=center;verticalAlign=middle;whiteSpace=wrap;rounded=0;" vertex="1" parent="1">
          <mxGeometry x="1610" y="840" width="130" height="40" as="geometry" />
        </mxCell>
        <mxCell id="OmWuvQowkOaVl8Fed1vT-537" value="&lt;img alt=&quot;Transfer Icon Mintab Outline For IOS Icon, PNG, 1294x1056px, Transfer Icon,  Logo, Symbol, Text, Yellow Download&quot; src=&quot;https://encrypted-tbn0.gstatic.com/images?q=tbn:ANd9GcT9bJAPk5onenNlvCDMPeXSDPiveGS6essY-A&amp;amp;usqp=CAU&quot;&gt;" style="text;html=1;strokeColor=none;fillColor=none;align=center;verticalAlign=middle;whiteSpace=wrap;rounded=0;fontSize=20;fontFamily=Helvetica;fontColor=#000000;" vertex="1" parent="1">
          <mxGeometry x="2146" y="650" width="250" height="200" as="geometry" />
        </mxCell>
        <mxCell id="OmWuvQowkOaVl8Fed1vT-538" value="" style="html=1;shadow=0;dashed=0;align=center;verticalAlign=middle;shape=mxgraph.arrows2.arrow;dy=0.6;dx=40;direction=south;notch=0;rounded=0;fontFamily=Helvetica;fontSize=12;fontColor=default;fillColor=#FFC012;gradientColor=none;strokeColor=default;strokeWidth=2;" vertex="1" parent="1">
          <mxGeometry x="240" y="940" width="70" height="130" as="geometry" />
        </mxCell>
        <mxCell id="OmWuvQowkOaVl8Fed1vT-540" style="edgeStyle=orthogonalEdgeStyle;shape=connector;rounded=0;orthogonalLoop=1;jettySize=auto;html=1;exitX=1;exitY=0.5;exitDx=0;exitDy=0;labelBackgroundColor=default;strokeColor=default;strokeWidth=2;fontFamily=Helvetica;fontSize=12;fontColor=default;endArrow=classic;" edge="1" parent="1" source="OmWuvQowkOaVl8Fed1vT-539">
          <mxGeometry relative="1" as="geometry">
            <mxPoint x="640" y="1125.3333333333335" as="targetPoint" />
          </mxGeometry>
        </mxCell>
        <mxCell id="OmWuvQowkOaVl8Fed1vT-539" value="&lt;font style=&quot;font-size: 27px;&quot;&gt;&lt;b&gt;Functions to Add Currencies&lt;/b&gt;&lt;/font&gt;" style="text;html=1;strokeColor=#FFC012;fillColor=#FFC012;align=center;verticalAlign=middle;whiteSpace=wrap;rounded=1;gradientColor=#FFE599;strokeWidth=2;perimeterSpacing=2;" vertex="1" parent="1">
          <mxGeometry x="112.5" y="1090" width="310" height="70" as="geometry" />
        </mxCell>
        <mxCell id="OmWuvQowkOaVl8Fed1vT-543" style="edgeStyle=orthogonalEdgeStyle;shape=connector;rounded=0;orthogonalLoop=1;jettySize=auto;html=1;exitX=1;exitY=0.5;exitDx=0;exitDy=0;labelBackgroundColor=default;strokeColor=default;strokeWidth=2;fontFamily=Helvetica;fontSize=12;fontColor=default;endArrow=classic;" edge="1" parent="1" source="OmWuvQowkOaVl8Fed1vT-541">
          <mxGeometry relative="1" as="geometry">
            <mxPoint x="1080" y="1125.3333333333335" as="targetPoint" />
          </mxGeometry>
        </mxCell>
        <mxCell id="OmWuvQowkOaVl8Fed1vT-541" value="&lt;font style=&quot;font-size: 25px;&quot;&gt;The contract allows the &lt;/font&gt;" style="text;html=1;strokeColor=none;fillColor=none;align=center;verticalAlign=middle;whiteSpace=wrap;rounded=0;" vertex="1" parent="1">
          <mxGeometry x="647.5" y="1100.25" width="273.5" height="49.5" as="geometry" />
        </mxCell>
        <mxCell id="OmWuvQowkOaVl8Fed1vT-545" value="" style="edgeStyle=orthogonalEdgeStyle;shape=connector;rounded=0;orthogonalLoop=1;jettySize=auto;html=1;labelBackgroundColor=default;strokeColor=default;strokeWidth=2;fontFamily=Helvetica;fontSize=12;fontColor=default;endArrow=classic;" edge="1" parent="1" source="OmWuvQowkOaVl8Fed1vT-542">
          <mxGeometry relative="1" as="geometry">
            <mxPoint x="1415" y="1125" as="targetPoint" />
          </mxGeometry>
        </mxCell>
        <mxCell id="OmWuvQowkOaVl8Fed1vT-542" value="&lt;font style=&quot;font-size: 25px;&quot;&gt;Gateway&lt;/font&gt;" style="text;html=1;strokeColor=#FFC012;fillColor=#FFC012;align=center;verticalAlign=middle;whiteSpace=wrap;rounded=1;gradientColor=#FFE599;strokeWidth=2;" vertex="1" parent="1">
          <mxGeometry x="1090" y="1098.75" width="190" height="52.5" as="geometry" />
        </mxCell>
        <mxCell id="OmWuvQowkOaVl8Fed1vT-548" style="edgeStyle=orthogonalEdgeStyle;shape=connector;rounded=0;orthogonalLoop=1;jettySize=auto;html=1;exitX=1;exitY=0.5;exitDx=0;exitDy=0;labelBackgroundColor=default;strokeColor=default;strokeWidth=2;fontFamily=Helvetica;fontSize=12;fontColor=default;endArrow=classic;" edge="1" parent="1" source="OmWuvQowkOaVl8Fed1vT-546">
          <mxGeometry relative="1" as="geometry">
            <mxPoint x="1850" y="1125.3333333333335" as="targetPoint" />
          </mxGeometry>
        </mxCell>
        <mxCell id="OmWuvQowkOaVl8Fed1vT-546" value="&lt;font style=&quot;font-size: 25px;&quot;&gt;To &lt;font color=&quot;#ffc012&quot;&gt;add new supported currencies&lt;/font&gt; to the financial system&lt;/font&gt;" style="text;html=1;strokeColor=none;fillColor=none;align=center;verticalAlign=middle;whiteSpace=wrap;rounded=0;" vertex="1" parent="1">
          <mxGeometry x="1430" y="1077.5" width="290" height="95" as="geometry" />
        </mxCell>
        <mxCell id="OmWuvQowkOaVl8Fed1vT-549" value="&lt;font style=&quot;font-size: 20px;&quot;&gt;This is important for&lt;/font&gt;" style="text;html=1;strokeColor=none;fillColor=none;align=center;verticalAlign=middle;whiteSpace=wrap;rounded=0;" vertex="1" parent="1">
          <mxGeometry x="1720" y="1070" width="130" height="40" as="geometry" />
        </mxCell>
        <mxCell id="OmWuvQowkOaVl8Fed1vT-551" value="&lt;font style=&quot;font-size: 25px;&quot;&gt;Expanding the &lt;font color=&quot;#ffc012&quot;&gt;investment options&lt;/font&gt; available in the &lt;font color=&quot;#ffc012&quot;&gt;liquidity pools&lt;/font&gt;&lt;/font&gt;" style="text;html=1;strokeColor=none;fillColor=none;align=left;verticalAlign=middle;whiteSpace=wrap;rounded=0;" vertex="1" parent="1">
          <mxGeometry x="1863" y="1105" width="590" height="40" as="geometry" />
        </mxCell>
        <mxCell id="OmWuvQowkOaVl8Fed1vT-552" value="&lt;img src=&quot;https://centrifuge.io/static/e367b40aa8e6158db72b20b04871451e/integration-infrastructure.svg&quot;&gt;" style="text;html=1;strokeColor=none;fillColor=none;align=center;verticalAlign=middle;whiteSpace=wrap;rounded=0;fontSize=20;fontFamily=Helvetica;fontColor=#000000;" vertex="1" parent="1">
          <mxGeometry x="460" y="890" width="232" height="230" as="geometry" />
        </mxCell>
        <mxCell id="OmWuvQowkOaVl8Fed1vT-553" value="" style="html=1;shadow=0;dashed=0;align=center;verticalAlign=middle;shape=mxgraph.arrows2.arrow;dy=0.6;dx=40;direction=south;notch=0;rounded=0;fontFamily=Helvetica;fontSize=12;fontColor=default;fillColor=#FFC012;gradientColor=none;strokeColor=default;strokeWidth=2;" vertex="1" parent="1">
          <mxGeometry x="240" y="1190" width="70" height="130" as="geometry" />
        </mxCell>
        <mxCell id="OmWuvQowkOaVl8Fed1vT-555" style="edgeStyle=orthogonalEdgeStyle;shape=connector;rounded=0;orthogonalLoop=1;jettySize=auto;html=1;exitX=1;exitY=0.5;exitDx=0;exitDy=0;labelBackgroundColor=default;strokeColor=default;strokeWidth=2;fontFamily=Helvetica;fontSize=12;fontColor=default;endArrow=classic;" edge="1" parent="1" source="OmWuvQowkOaVl8Fed1vT-554">
          <mxGeometry relative="1" as="geometry">
            <mxPoint x="640" y="1385.3333333333335" as="targetPoint" />
          </mxGeometry>
        </mxCell>
        <mxCell id="OmWuvQowkOaVl8Fed1vT-554" value="&lt;font style=&quot;font-size: 30px;&quot;&gt;&lt;b&gt;Checks and Security&lt;/b&gt;&lt;/font&gt;" style="text;html=1;strokeColor=#FFC012;fillColor=#FFC012;align=center;verticalAlign=middle;whiteSpace=wrap;rounded=1;gradientColor=#FFE599;strokeWidth=2;perimeterSpacing=2;" vertex="1" parent="1">
          <mxGeometry x="120" y="1350" width="310" height="70" as="geometry" />
        </mxCell>
        <mxCell id="OmWuvQowkOaVl8Fed1vT-559" value="" style="edgeStyle=orthogonalEdgeStyle;shape=connector;rounded=0;orthogonalLoop=1;jettySize=auto;html=1;labelBackgroundColor=default;strokeColor=default;strokeWidth=2;fontFamily=Helvetica;fontSize=12;fontColor=default;endArrow=classic;" edge="1" parent="1" source="OmWuvQowkOaVl8Fed1vT-556" target="OmWuvQowkOaVl8Fed1vT-558">
          <mxGeometry relative="1" as="geometry" />
        </mxCell>
        <mxCell id="OmWuvQowkOaVl8Fed1vT-556" value="&lt;font style=&quot;font-size: 25px;&quot;&gt;The contract &lt;font color=&quot;#ffc012&quot;&gt;includes checks&lt;/font&gt; to ensure that &lt;font color=&quot;#ffc012&quot;&gt;operations are only carried out when it is safe&lt;/font&gt; to do so&lt;/font&gt;" style="text;html=1;strokeColor=none;fillColor=none;align=center;verticalAlign=middle;whiteSpace=wrap;rounded=0;" vertex="1" parent="1">
          <mxGeometry x="647.5" y="1340.12" width="542.5" height="89.75" as="geometry" />
        </mxCell>
        <mxCell id="OmWuvQowkOaVl8Fed1vT-557" value="&lt;img alt=&quot;Check Icon - Yellow Check Icon Png Transparent PNG - 378x378 - Free  Download on NicePNG&quot; src=&quot;https://encrypted-tbn0.gstatic.com/images?q=tbn:ANd9GcTxMxt7gm8Aza1jeDs_9aoLhsVxNDZ8lAR5Ng&amp;amp;usqp=CAU&quot;&gt;" style="text;html=1;strokeColor=none;fillColor=none;align=center;verticalAlign=middle;whiteSpace=wrap;rounded=0;fontSize=20;fontFamily=Helvetica;fontColor=#000000;" vertex="1" parent="1">
          <mxGeometry x="763.75" y="1175" width="310" height="160" as="geometry" />
        </mxCell>
        <mxCell id="OmWuvQowkOaVl8Fed1vT-558" value="" style="shape=singleArrow;whiteSpace=wrap;html=1;arrowWidth=0.4;arrowSize=0.4;rounded=1;fontFamily=Helvetica;fontSize=12;fontColor=default;fillColor=#FFC012;gradientColor=#FFE599;strokeColor=#FFC012;strokeWidth=2;" vertex="1" parent="1">
          <mxGeometry x="1501.25" y="1354.995" width="80" height="60" as="geometry" />
        </mxCell>
        <mxCell id="OmWuvQowkOaVl8Fed1vT-565" style="edgeStyle=orthogonalEdgeStyle;shape=connector;rounded=0;orthogonalLoop=1;jettySize=auto;html=1;exitX=0.5;exitY=0;exitDx=0;exitDy=0;entryX=0.5;entryY=0;entryDx=0;entryDy=0;labelBackgroundColor=default;strokeColor=default;strokeWidth=2;fontFamily=Helvetica;fontSize=12;fontColor=default;endArrow=classic;" edge="1" parent="1" source="OmWuvQowkOaVl8Fed1vT-560" target="OmWuvQowkOaVl8Fed1vT-562">
          <mxGeometry relative="1" as="geometry" />
        </mxCell>
        <mxCell id="OmWuvQowkOaVl8Fed1vT-566" style="edgeStyle=orthogonalEdgeStyle;shape=connector;rounded=0;orthogonalLoop=1;jettySize=auto;html=1;exitX=0.5;exitY=1;exitDx=0;exitDy=0;entryX=0.25;entryY=1;entryDx=0;entryDy=0;labelBackgroundColor=default;strokeColor=default;strokeWidth=2;fontFamily=Helvetica;fontSize=12;fontColor=default;endArrow=classic;" edge="1" parent="1" source="OmWuvQowkOaVl8Fed1vT-560" target="OmWuvQowkOaVl8Fed1vT-564">
          <mxGeometry relative="1" as="geometry" />
        </mxCell>
        <mxCell id="OmWuvQowkOaVl8Fed1vT-560" value="&lt;font style=&quot;font-size: 20px;&quot;&gt;For example&lt;/font&gt;" style="text;html=1;strokeColor=none;fillColor=none;align=center;verticalAlign=middle;whiteSpace=wrap;rounded=0;" vertex="1" parent="1">
          <mxGeometry x="1270" y="1350" width="149" height="40" as="geometry" />
        </mxCell>
        <mxCell id="OmWuvQowkOaVl8Fed1vT-561" value="" style="shape=waypoint;sketch=0;fillStyle=solid;size=6;pointerEvents=1;points=[];fillColor=none;resizable=0;rotatable=0;perimeter=centerPerimeter;snapToPoint=1;rounded=0;fontFamily=Helvetica;fontSize=12;fontColor=default;html=1;strokeWidth=5;strokeColor=#FFC012;" vertex="1" parent="1">
          <mxGeometry x="1620" y="1310" width="20" height="20" as="geometry" />
        </mxCell>
        <mxCell id="OmWuvQowkOaVl8Fed1vT-562" value="&lt;font style=&quot;font-size: 25px;&quot;&gt;Verifies that a currency is known&lt;/font&gt;" style="text;html=1;strokeColor=none;fillColor=none;align=left;verticalAlign=middle;whiteSpace=wrap;rounded=0;" vertex="1" parent="1">
          <mxGeometry x="1665" y="1300" width="370" height="40" as="geometry" />
        </mxCell>
        <mxCell id="OmWuvQowkOaVl8Fed1vT-563" value="" style="shape=waypoint;sketch=0;fillStyle=solid;size=6;pointerEvents=1;points=[];fillColor=none;resizable=0;rotatable=0;perimeter=centerPerimeter;snapToPoint=1;rounded=0;fontFamily=Helvetica;fontSize=12;fontColor=default;html=1;strokeWidth=5;strokeColor=#FFC012;" vertex="1" parent="1">
          <mxGeometry x="1620" y="1409.87" width="20" height="20" as="geometry" />
        </mxCell>
        <mxCell id="OmWuvQowkOaVl8Fed1vT-564" value="&lt;font style=&quot;font-size: 25px;&quot;&gt;A specific tranche has been added before attempting to deploy it&lt;/font&gt;" style="text;html=1;strokeColor=none;fillColor=none;align=left;verticalAlign=middle;whiteSpace=wrap;rounded=0;" vertex="1" parent="1">
          <mxGeometry x="1665" y="1399.87" width="725" height="40" as="geometry" />
        </mxCell>
        <mxCell id="OmWuvQowkOaVl8Fed1vT-567" value="&lt;img alt=&quot;Shield, secure, verified, security Icon - Free icons&quot; src=&quot;https://encrypted-tbn0.gstatic.com/images?q=tbn:ANd9GcT4WyvF9MUBZEp2t2etpAH46dIFWgS1nbVRqQ&amp;amp;usqp=CAU&quot;&gt;" style="text;html=1;strokeColor=none;fillColor=none;align=center;verticalAlign=middle;whiteSpace=wrap;rounded=0;fontSize=20;fontFamily=Helvetica;fontColor=#000000;" vertex="1" parent="1">
          <mxGeometry x="2066" y="1172.5" width="250" height="200" as="geometry" />
        </mxCell>
      </root>
    </mxGraphModel>
  </diagram>
</mxfile>
